<?xml version="1.0" encoding="utf-8"?>
<!-- Generator: Adobe Illustrator 24.3.0, SVG Export Plug-In . SVG Version: 6.00 Build 0)  -->
<svg version="1.1" id="Capa_1" xmlns="http://www.w3.org/2000/svg" xmlns:xlink="http://www.w3.org/1999/xlink" x="0px" y="0px"
	 viewBox="0 0 512 512" style="enable-background:new 0 0 512 512;" xml:space="preserve">
<style type="text/css">
	.st0{fill:#FFCE00;}
	.st1{fill:#FFA81E;}
	.st2{fill:#FF9900;}
</style>
<path class="st0" d="M81.8,236L243.6,75.5c2.5-2.5,5.9-3.9,9.5-3.9l172.6,0.7c11.9,0,17.8,14.5,9.3,22.8
	c-49.5,49.1-162.2,160.9-162.2,160.9s111.8,112.7,160.8,162.2c8.4,8.4,2.4,22.8-9.5,22.7l-172.6-0.7c-3.5,0-6.9-1.4-9.4-4L169.3,363
	l-87.6-88.3C71,263.9,71.1,246.6,81.8,236z"/>
<path class="st1" d="M182.7,236.4L344.5,75.9c2.5-2.5,5.9-3.9,9.5-3.9l71.6,0.3c11.9,0,17.8,14.5,9.3,22.8
	c-49.5,49.1-162.2,160.9-162.2,160.9s111.8,112.7,160.8,162.2c8.4,8.4,2.4,22.8-9.5,22.7l-71.7-0.3c-3.5,0-6.9-1.4-9.4-4L182.6,275
	C172,264.3,172,247,182.7,236.4z"/>
<path class="st2" d="M182.7,236.4L344.5,75.9c2.5-2.5,5.9-3.9,9.5-3.9l42,0.2c-3.5,0-6.9,1.4-9.5,3.9L220,241.2
	c-10.7,10.6-10.7,18.6-0.1,29.3L385,437c2.5,2.5,5.9,3.9,9.4,4l-42-0.2c-3.5,0-6.9-1.4-9.4-4L182.6,275
	C172,264.3,172,247,182.7,236.4z"/>
<g>
	<path class="st1" d="M494,488.6c-4.1,0-7.5,3.4-7.5,7.5v8.4c0,4.1,3.4,7.5,7.5,7.5s7.5-3.4,7.5-7.5v-8.4
		C501.5,491.9,498.2,488.6,494,488.6z"/>
	<path class="st1" d="M449.7,488.6c-4.1,0-7.5,3.4-7.5,7.5v8.4c0,4.1,3.4,7.5,7.5,7.5s7.5-3.4,7.5-7.5v-8.4
		C457.2,491.9,453.9,488.6,449.7,488.6z"/>
	<path class="st1" d="M405.5,488.6c-4.1,0-7.5,3.4-7.5,7.5v8.4c0,4.1,3.4,7.5,7.5,7.5s7.5-3.4,7.5-7.5v-8.4
		C413,491.9,409.6,488.6,405.5,488.6z"/>
</g>
<g>
	<path class="st2" d="M106.5,23.4c4.1,0,7.5-3.4,7.5-7.5V7.5c0-4.1-3.4-7.5-7.5-7.5S99,3.4,99,7.5v8.4
		C99,20.1,102.4,23.4,106.5,23.4z"/>
	<path class="st2" d="M69.8,15.9V7.5c0-4.1-3.4-7.5-7.5-7.5s-7.5,3.4-7.5,7.5v8.4c0,4.1,3.4,7.5,7.5,7.5S69.8,20.1,69.8,15.9z"/>
	<path class="st2" d="M18,0c-4.1,0-7.5,3.4-7.5,7.5v8.4c0,4.1,3.4,7.5,7.5,7.5s7.5-3.4,7.5-7.5V7.5C25.5,3.4,22.1,0,18,0z"/>
</g>
</svg>
